# xmcd CD database file
#
# Track frame offsets:
#	150
#	25903
#	48098
#	74890
#	93819
#	113422
#	137718
#	166490
#	189177
#	210442
#	225920
#
# Disc length: 3275 seconds
#
# Revision: 1
# Processed by: cddbd v1.5.2PL0 Copyright (c) Steve Scherf et al.
# Submitted via: CDex 1.70beta3
#
DISCID=840cc90b
DTITLE=EGO-WRAPPIN' - steal a person's heart
DYEAR=2013
DGENRE=Blues
TTITLE0=水中の光
TTITLE1=FUTURE
TTITLE2=AQビート
TTITLE3=10万年後の君へ
TTITLE4=on You
TTITLE5=ウィスキーとラムネ
TTITLE6=女根の月
TTITLE7=ちりと灰
TTITLE8=Fall
TTITLE9=blue bird
TTITLE10=fine bitter
EXTD=YEAR: 2013
EXTT0=
EXTT1=
EXTT2=
EXTT3=
EXTT4=
EXTT5=
EXTT6=
EXTT7=
EXTT8=
EXTT9=
EXTT10=
PLAYORDER=
